<svg xmlns="http://www.w3.org/2000/svg" viewBox="0 0 960 600" role="img" aria-labelledby="title desc">
  <title id="title">智慧水利数字孪生平台封面</title>
  <desc id="desc">白底科技感的数据驾驶舱示意图</desc>
  <defs>
    <linearGradient id="bg" x1="0" x2="1" y1="0" y2="1">
      <stop stop-color="#f8fcff"/>
      <stop offset="1" stop-color="#eaf8ff"/>
    </linearGradient>
    <linearGradient id="a" x1="0" x2="1">
      <stop stop-color="#0ea5e9"/>
      <stop offset="1" stop-color="#14b8a6"/>
    </linearGradient>
  </defs>
  <rect width="960" height="600" fill="url(#bg)"/>
  <g stroke="#cfe3f0" stroke-width="1">
    <path d="M0 100h960M0 200h960M0 300h960M0 400h960M0 500h960"/>
    <path d="M120 0v600M240 0v600M360 0v600M480 0v600M600 0v600M720 0v600M840 0v600"/>
  </g>
  <rect x="90" y="72" width="780" height="456" rx="18" fill="#fff" stroke="#dbe8f2"/>
  <rect x="126" y="116" width="230" height="170" rx="12" fill="#f1f9ff" stroke="#dbe8f2"/>
  <rect x="390" y="116" width="444" height="170" rx="12" fill="#f8fbfd" stroke="#dbe8f2"/>
  <rect x="126" y="316" width="708" height="168" rx="12" fill="#f8fbfd" stroke="#dbe8f2"/>
  <path d="M155 246c52-76 99-22 139-82 38-56 61-26 78 4 20 36 44 42 76 8 44-48 84-43 122 12 26 38 57 39 94 8 42-35 82-23 119 34" fill="none" stroke="url(#a)" stroke-width="10" stroke-linecap="round"/>
  <g fill="#0ea5e9">
    <circle cx="206" cy="198" r="9"/><circle cx="357" cy="170" r="9"/><circle cx="569" cy="190" r="9"/><circle cx="754" cy="225" r="9"/>
  </g>
  <g fill="#0f172a">
    <rect x="160" y="350" width="110" height="12" rx="6"/><rect x="160" y="380" width="260" height="10" rx="5" opacity=".22"/>
    <rect x="160" y="408" width="210" height="10" rx="5" opacity=".16"/><rect x="160" y="436" width="300" height="10" rx="5" opacity=".12"/>
  </g>
  <g fill="none" stroke="url(#a)" stroke-width="7" stroke-linecap="round">
    <path d="M540 440h220"/><path d="M540 400h150"/><path d="M540 360h250"/>
  </g>
</svg>
